<svg xmlns="http://www.w3.org/2000/svg" version="1.1" xmlns:xlink="http://www.w3.org/1999/xlink" xmlns:svgjs="http://svgjs.dev/svgjs" width="1500" height="1687" viewBox="0 0 1500 1687"><g transform="matrix(1,0,0,1,2.2737367544323206e-13,0)"><svg viewBox="0 0 320 360" data-background-color="#0c1d36" preserveAspectRatio="xMidYMid meet" height="1687" width="1500" xmlns="http://www.w3.org/2000/svg" xmlns:xlink="http://www.w3.org/1999/xlink"><g id="tight-bounds" transform="matrix(1,0,0,1,0,0)"><svg viewBox="0 0 320 360" height="360" width="320"><g><svg></svg></g><g><svg viewBox="0 0 320 360" height="360" width="320"><g><path d="M20.961 227.22l3.726 4.658-1.863-6.056c-0.466-2.795-3.726 0.466-1.863 1.398M25.153 224.425c1.397 2.329 2.795 4.658 2.795 6.987 0 3.261 2.795 4.658 5.123 5.589-3.261-3.726-5.124-13.974-7.918-12.576M204.017 26.929c7.918 0 15.371-0.932 23.756 0.931 20.495 5.124 37.729 15.371 49.374 29.811l32.606 52.169c1.397 13.042 4.192 27.482 3.726 43.319 3.261 0 2.795-4.658 6.521-5.59-3.726 9.316-5.59 20.961-6.521 34.469-2.329-7.453 0-18.632 0.466-24.687-3.261 5.124-5.124 1.397-5.124-0.932 0.466-3.726-1.397-3.261-2.795-4.658-5.124-4.658-8.384-9.782-12.11-17.7 2.329-6.055 2.795-14.905-4.658-19.563-2.329-1.397-5.124-3.726-6.521-7.453-1.863-5.124-5.124-11.179-4.193-19.097 0.466-2.329-6.987 5.124-11.179 1.863-18.166-12.576-36.332-27.016-58.224-39.127-11.645 0-20.029-4.192-24.221-9.316-3.726-4.658-0.932-10.713 4.658-11.179 3.261 0 6.987-0.932 9.782 0.932 0.466-1.863 2.329-4.192 4.657-4.192M157.904 16.215l0.932 0.466c4.658 0.932 6.987 7.453 12.11 5.124 0 3.261 0.466 6.521-0.466 8.85-1.397 3.726-5.59 3.726-8.85 3.726-31.208-1.863-49.374 11.179-68.471 22.358-5.124 3.261-10.713 5.59-14.906 9.782-20.029 18.632-41.921 35.866-47.045 70.335l-4.192 38.195c-0.466 4.192-5.124 8.384-4.192 13.508l3.26 22.824c-3.261-3.261-5.124 0.932-4.192 2.795 0.466 1.397 2.329 6.055 5.124 1.863 3.726 6.987 7.453 20.495 12.576 26.55 15.837 18.632 36.332 35.4 53.101 52.169 4.192-0.932 7.453-0.932 8.384-3.727 1.397 2.795-1.397 5.59-3.726 6.056 7.453 4.658 15.837 8.85 27.016 9.781 14.44 0.932 27.948 3.261 40.524 6.522 6.521-1.863 13.042-2.795 20.029-3.261 2.329 0 3.726-3.726 6.521-4.658l0.466-4.658c2.795 4.192 2.329-1.397 0.466-4.192 3.261 2.795 4.192 5.124 5.589 6.987 0-1.397 3.726-6.521 3.727-0.466l0.931-6.055c1.397-0.932 1.863 5.124 3.261 0.931 1.397-4.192 4.192-0.932 6.987-2.329-0.932 1.863-0.466 5.59 2.794 3.261l3.727-3.261c2.329 5.59 6.055 3.261 7.918 2.329 20.495-13.042 40.99-28.413 60.553-43.784l-0.466 6.055 2.329-7.453c2.329 2.329 4.192 0.466 5.124-0.931 2.795-4.658 6.521-9.316 12.577-13.508-7.453 20.029-16.303 35.866-27.482 48.908l-4.658 5.59c0 3.261-0.932 7.453-4.658 7.918-1.863 0.466-5.59-0.932-8.384 1.863-1.397 1.863 3.261 5.59-0.466 2.795-3.261-2.329-6.521 0-10.248 0.932-2.795 0.932 1.863 3.726 2.795 5.589 0.932 1.863 1.863 3.726 1.398 6.056l-5.124-5.59c-6.055 3.261-9.782 9.316-14.906 13.974-2.329 1.863-1.397 5.124-1.397 7.918-3.261 0-6.987-0.932-8.85 0.932-1.397 1.863-0.932 4.658-0.932 7.453-4.658-0.466-5.124-7.453-9.315-6.056-4.192 0.932-8.85 1.397-12.577 3.727 2.795 5.59-4.658 2.329-3.726 3.26-6.987-4.192-13.042-7.453-20.495-4.658-15.837-5.124-35.4-2.795-49.84-0.931 0-2.329 0.466-4.658-0.466-5.124-0.932 2.329-3.726 1.397-3.26 1.397-8.85-6.055-17.7-9.782-27.016-14.905-8.384 0.932-16.303-3.261-18.632-5.59-6.521-6.055-13.974-2.795-20.029-4.192-13.042-3.261-17.7-16.769-19.098-26.084-0.932-4.658-4.658-6.521-6.055-6.056-6.055-19.563-15.371-37.263-22.824-55.429-1.863-4.658-1.397-9.316-1.397-14.44 2.329 0.932 4.658 0.466 4.192-2.794-2.329-15.371-7.918-27.016-13.974-38.195 3.261-15.837 3.726-34.469 11.179-48.443 6.521-12.576 18.632-19.098 27.016-29.811 2.795-3.726 2.795-8.85 5.59-12.11 9.316-9.316 18.632-19.098 28.879-27.482 4.658-3.726 10.247 0 17.234-1.397 2.329-8.384 11.645-15.837 20.495-13.508 3.726 0.932 11.179-8.85 13.508-9.782 3.726-1.397 1.863 3.726 1.863 6.987 8.85-6.987 20.961-10.713 32.14-14.906" fill="#f9cc0b" fill-rule="nonzero" stroke="none" stroke-width="1" stroke-linecap="butt" stroke-linejoin="miter" stroke-miterlimit="10" stroke-dasharray="" stroke-dashoffset="0" font-family="none" font-weight="none" font-size="none" text-anchor="none" style="mix-blend-mode: normal" data-fill-palette-color="tertiary"></path></g><g transform="matrix(1,0,0,1,122.66711698801211,90)"><svg viewBox="0 0 74.66576602397579 180" height="180" width="74.66576602397579"><g><svg viewBox="0 0 74.66576602397579 180" height="180" width="74.66576602397579"><g><svg viewBox="0 0 91.58239999999999 220.78166310791727" height="180" width="74.66576602397579"><g><svg viewBox="0 0 91.58239999999999 220.78166310791727" height="220.78166310791727" width="91.58239999999999"><g id="textblocktransform"><svg viewBox="0 0 91.58239999999999 220.78166310791727" height="220.78166310791727" width="91.58239999999999" id="textblock"><g><svg viewBox="0 0 91.58239999999999 178.88760000000002" height="178.88760000000002" width="91.58239999999999"><g transform="matrix(1,0,0,1,0,0)"><svg width="91.58239999999999" viewBox="4.2 -35.1 18.2 35.550000000000004" height="178.88760000000002" data-palette-color="#f9cc0b"><path d="M8.2-35.1L7.9-10.05 8.15 0 4.2 0 4.5-9.75 4.25-34.75 8.2-35.1ZM21.8-22.9L12.8-12.4Q16.25-7.75 22.4-0.7L22.4-0.7 22.4-0.25Q21.45 0.05 20.33 0.23 19.2 0.4 18.85 0.45L18.85 0.45 18.35 0.25Q12.7-6.45 8.85-12.05L8.85-12.05 8.85-12.4 16-20.85 17.3-22.9 21.8-22.9Z" opacity="1" transform="matrix(1,0,0,1,0,0)" fill="#f9cc0b" class="wordmark-text-0" data-fill-palette-color="primary" id="text-0"></path></svg></g></svg></g><g transform="matrix(1,0,0,1,0,204.99159414240003)"><svg viewBox="0 0 91.58239999999999 15.790068965517237" height="15.790068965517237" width="91.58239999999999"><g transform="matrix(1,0,0,1,0,0)"><svg width="91.58239999999999" viewBox="2.5 -35.9 272.58 47" height="15.790068965517237" data-palette-color="#f9cc0b"><path d="M19.1-35.9L22.8-35.9 22.8 0 19.1 0 19.1-1.7Q15.25 0.5 11.5 0.5L11.5 0.5Q9.5 0.5 8 0 6.5-0.5 5.2-1.8L5.2-1.8Q2.5-4.5 2.5-11.78 2.5-19.05 4.93-22.28 7.35-25.5 12.95-25.5L12.95-25.5Q15.85-25.5 19.1-24.85L19.1-24.85 19.1-35.9ZM8.1-4.5Q8.9-3.55 9.8-3.2 10.7-2.85 12.13-2.85 13.55-2.85 15.33-3.33 17.1-3.8 18.1-4.25L18.1-4.25 19.1-4.7 19.1-21.65Q15.9-22.25 13.15-22.25L13.15-22.25Q9.35-22.25 7.85-19.83 6.35-17.4 6.35-12.3L6.35-12.3Q6.35-6.5 8.1-4.5L8.1-4.5ZM47.05-3.1L47.05-3.1 48.5-3.25 48.6-0.3Q42.9 0.5 38.85 0.5L38.85 0.5Q33.45 0.5 31.2-2.63 28.95-5.75 28.95-12.35L28.95-12.35Q28.95-25.5 39.4-25.5L39.4-25.5Q44.45-25.5 46.95-22.68 49.45-19.85 49.45-13.8L49.45-13.8 49.25-10.95 32.75-10.95Q32.75-6.8 34.25-4.8 35.75-2.8 39.47-2.8 43.2-2.8 47.05-3.1ZM32.7-13.95L45.7-13.95Q45.7-18.55 44.22-20.45 42.75-22.35 39.42-22.35 36.1-22.35 34.42-20.35 32.75-18.35 32.7-13.95L32.7-13.95ZM59.6 0L52.55-25 56.55-25 62.4-3.25 64.25-3.25 70.3-25 74.15-25 67.1 0 59.6 0ZM95.49-3.1L95.49-3.1 96.94-3.25 97.04-0.3Q91.34 0.5 87.29 0.5L87.29 0.5Q81.89 0.5 79.64-2.63 77.39-5.75 77.39-12.35L77.39-12.35Q77.39-25.5 87.84-25.5L87.84-25.5Q92.89-25.5 95.39-22.68 97.89-19.85 97.89-13.8L97.89-13.8 97.69-10.95 81.19-10.95Q81.19-6.8 82.69-4.8 84.19-2.8 87.92-2.8 91.64-2.8 95.49-3.1ZM81.14-13.95L94.14-13.95Q94.14-18.55 92.67-20.45 91.19-22.35 87.87-22.35 84.54-22.35 82.87-20.35 81.19-18.35 81.14-13.95L81.14-13.95ZM107.79 0L104.04 0 104.04-35.9 107.79-35.9 107.79 0ZM114.19-12.55Q114.19-19.4 116.64-22.45 119.09-25.5 124.91-25.5 130.74-25.5 133.16-22.45 135.59-19.4 135.59-12.55 135.59-5.7 133.29-2.6 130.99 0.5 124.89 0.5 118.79 0.5 116.49-2.6 114.19-5.7 114.19-12.55ZM118.04-12.63Q118.04-7.15 119.36-4.95 120.69-2.75 124.91-2.75 129.14-2.75 130.44-4.93 131.74-7.1 131.74-12.6 131.74-18.1 130.29-20.18 128.84-22.25 124.91-22.25 120.99-22.25 119.51-20.18 118.04-18.1 118.04-12.63ZM145.44 11.1L141.69 11.1 141.69-25 145.39-25 145.39-23.2Q149.19-25.5 152.89-25.5L152.89-25.5Q157.64-25.5 159.79-22.48 161.94-19.45 161.94-12.5 161.94-5.55 159.41-2.53 156.89 0.5 151.03 0.5L151.03 0.5Q147.99 0.5 145.44-0.05L145.44-0.05 145.44 11.1ZM152.34-22.15L152.34-22.15Q150.84-22.15 149.11-21.65 147.39-21.15 146.39-20.65L146.39-20.65 145.44-20.15 145.44-3.3Q148.99-2.75 150.84-2.75L150.84-2.75Q154.89-2.75 156.51-5.05 158.14-7.35 158.14-12.55 158.14-17.75 156.66-19.95 155.19-22.15 152.34-22.15ZM171.78-20.3L171.78 0 168.03 0 168.03-25 171.73-25 171.73-23.25Q175.48-25.5 179.03-25.5L179.03-25.5Q183.68-25.5 185.53-22.95L185.53-22.95Q187.18-23.95 189.81-24.73 192.43-25.5 194.43-25.5L194.43-25.5Q199.43-25.5 201.16-22.83 202.88-20.15 202.88-13.2L202.88-13.2 202.88 0 199.13 0 199.13-13.1Q199.13-18.3 198.13-20.23 197.13-22.15 193.88-22.15L193.88-22.15Q192.23-22.15 190.48-21.68 188.73-21.2 187.78-20.75L187.78-20.75 186.83-20.3Q187.48-18.65 187.48-13L187.48-13 187.48 0 183.73 0 183.73-12.9Q183.73-18.3 182.76-20.23 181.78-22.15 178.48-22.15L178.48-22.15Q176.88-22.15 175.21-21.68 173.53-21.2 172.63-20.75L172.63-20.75 171.78-20.3ZM226.83-3.1L226.83-3.1 228.28-3.25 228.38-0.3Q222.68 0.5 218.63 0.5L218.63 0.5Q213.23 0.5 210.98-2.63 208.73-5.75 208.73-12.35L208.73-12.35Q208.73-25.5 219.18-25.5L219.18-25.5Q224.23-25.5 226.73-22.68 229.23-19.85 229.23-13.8L229.23-13.8 229.03-10.95 212.53-10.95Q212.53-6.8 214.03-4.8 215.53-2.8 219.26-2.8 222.98-2.8 226.83-3.1ZM212.48-13.95L225.48-13.95Q225.48-18.55 224.01-20.45 222.53-22.35 219.21-22.35 215.88-22.35 214.21-20.35 212.53-18.35 212.48-13.95L212.48-13.95ZM238.83-20.3L238.83 0 235.08 0 235.08-25 238.78-25 238.78-23.25Q242.83-25.5 246.53-25.5L246.53-25.5Q251.53-25.5 253.25-22.8 254.98-20.1 254.98-13.2L254.98-13.2 254.98 0 251.28 0 251.28-13.1Q251.28-18.3 250.25-20.23 249.23-22.15 245.88-22.15L245.88-22.15Q244.28-22.15 242.5-21.68 240.73-21.2 239.78-20.75L239.78-20.75 238.83-20.3ZM274.73-25L274.73-21.75 266.78-21.75 266.78-9.8Q266.78-5.5 267.4-4.15 268.03-2.8 270.38-2.8L270.38-2.8 274.83-3.1 275.08 0Q271.73 0.55 269.98 0.55L269.98 0.55Q266.08 0.55 264.58-1.35 263.08-3.25 263.08-8.6L263.08-8.6 263.08-21.75 259.53-21.75 259.53-25 263.08-25 263.08-32.65 266.78-32.65 266.78-25 274.73-25Z" opacity="1" transform="matrix(1,0,0,1,0,0)" fill="#f9cc0b" class="slogan-text-1" data-fill-palette-color="secondary" id="text-1"></path></svg></g></svg></g></svg></g></svg></g><g></g></svg></g></svg></g></svg></g></svg></g><defs></defs></svg><rect width="320" height="360" fill="none" stroke="none" visibility="hidden"></rect></g></svg></g></svg>